<svg width="31" height="26" viewBox="0 0 31 26" fill="none" xmlns="http://www.w3.org/2000/svg">
<path fill-rule="evenodd" clip-rule="evenodd" d="M5 2H26C27.6569 2 29 3.34315 29 5V16.6224C29 18.2792 27.6569 19.6224 26 19.6224H12.6061C11.617 19.6224 10.6433 19.8669 9.7715 20.3342L2.73622 24.1054C2.49284 24.2358 2.18978 24.1443 2.05932 23.9009C2.02038 23.8283 2 23.7471 2 23.6647V5C2 3.34315 3.34315 2 5 2Z" stroke="#A2A2A2" stroke-width="3"/>
<path d="M8.5 9C7.11929 9 6 10.1193 6 11.5C6 12.8807 7.11929 14 8.5 14C9.88071 14 11 12.8807 11 11.5C11 10.1193 9.88071 9 8.5 9Z" fill="#A2A2A2"/>
<path d="M15.5 9C14.1193 9 13 10.1193 13 11.5C13 12.8807 14.1193 14 15.5 14C16.8807 14 18 12.8807 18 11.5C18 10.1193 16.8807 9 15.5 9Z" fill="#A2A2A2"/>
<path d="M22.5 9C21.1193 9 20 10.1193 20 11.5C20 12.8807 21.1193 14 22.5 14C23.8807 14 25 12.8807 25 11.5C25 10.1193 23.8807 9 22.5 9Z" fill="#A2A2A2"/>
</svg>
