<svg width="40" height="40" viewBox="0 0 40 40" fill="none" xmlns="http://www.w3.org/2000/svg">
<circle cx="20" cy="20" r="20" fill="#4C87D5"/>
<g clip-path="url(#clip0)">
<path d="M23.2561 13.145C23.5412 12.8864 23.8939 12.954 24.1437 13.2038C24.3142 13.3743 24.4846 13.5448 24.6551 13.7152C25.1313 14.1914 25.6045 14.6646 26.0777 15.1378C26.3539 15.4141 26.6596 15.6786 26.9124 15.9754C27.1505 16.2517 27.0593 16.5956 26.8242 16.8307C26.639 17.0159 26.4568 17.1981 26.2716 17.3833L25.19 18.4649C25.1342 18.5207 25.0372 18.5207 24.9814 18.4649L21.5631 15.0467C21.5073 14.9908 21.5073 14.8938 21.5631 14.838L23.2532 13.1468L23.2238 13.185C23.1924 13.2428 23.2146 13.3077 23.2601 13.3494L23.3619 13.2479C23.3964 13.2134 23.4352 13.1859 23.4766 13.1654C23.4384 13.1129 23.3651 13.0821 23.2984 13.1144L23.2561 13.145Z" fill="white"/>
<path d="M20.1656 16.3025C20.2075 16.2926 20.254 16.3021 20.2943 16.3421L20.7083 16.754C21.7027 17.7432 22.6941 18.7295 23.6856 19.7157C23.741 19.7708 23.741 19.8666 23.6856 19.9217C23.6768 19.9304 23.6681 19.9362 23.6622 19.9449C23.498 20.118 23.3301 20.2881 23.1606 20.4568L22.1372 21.462C21.2215 22.3728 20.3059 23.2837 19.3903 24.1945C18.6146 24.9661 17.8419 25.7348 17.0691 26.5036C16.9088 26.6631 16.7513 26.8313 16.5851 26.9851C16.5268 27.0402 16.4597 27.046 16.3839 27.0518C16.1885 27.0721 15.9931 27.0895 15.7978 27.1069C14.7947 27.1968 13.7915 27.2897 12.7884 27.3825C12.7155 27.3883 12.6368 27.31 12.6426 27.2375C12.6426 27.2084 12.6456 27.1823 12.6485 27.1562C12.7447 26.0597 12.838 24.9661 12.9313 23.8696C12.943 23.7449 12.943 23.6173 12.9634 23.4925C12.9751 23.4113 13.013 23.3794 13.0655 23.3272C13.2696 23.1241 13.4708 22.924 13.6749 22.7209C14.4885 21.9116 15.302 21.1023 16.1156 20.293C17.0167 19.3966 17.9148 18.5032 18.8158 17.6069C19.2416 17.1833 19.6644 16.7627 20.0901 16.3392C20.1011 16.3283 20.1124 16.3213 20.124 16.3175L20.1283 16.3169L20.1656 16.3025Z" fill="white"/>
</g>
<defs>
<clipPath id="clip0">
<rect x="12" y="13" width="16" height="15" fill="white"/>
</clipPath>
</defs>
</svg>
