<svg width="26" height="26" viewBox="0 0 26 26" fill="none" xmlns="http://www.w3.org/2000/svg">
<path fill-rule="evenodd" clip-rule="evenodd" d="M9.67791 0.575834L16.7612 3.055C17.0871 3.16833 17.4271 3.15417 17.7387 3.04083L21.8896 1.42583C23.7454 0.703334 25.7429 2.06333 25.7429 4.06083V20.8483C25.7429 22.0667 24.9637 23.1575 23.8162 23.54L18.1637 25.4383C17.5687 25.6367 16.9171 25.6367 16.3221 25.4242L9.23875 22.945C8.92708 22.8317 8.57291 22.8317 8.26125 22.9592L4.11041 24.5742C2.25458 25.2967 0.25708 23.9367 0.25708 21.9392V5.15167C0.25708 3.93333 1.03625 2.85667 2.18375 2.46L7.83625 0.561667C8.43125 0.363334 9.08291 0.363334 9.67791 0.575834ZM8.75708 19.7717L17.2571 22.7608V6.22833L8.75708 3.23916V19.7717Z" fill="#A2A2A2"/>
</svg>
