<svg width="16" height="20" viewBox="0 0 16 20" fill="none" xmlns="http://www.w3.org/2000/svg">
<path fill-rule="evenodd" clip-rule="evenodd" d="M14.0013 8.75V13.75L15.2913 15.04C15.9213 15.67 15.4713 16.75 14.5813 16.75H1.41127C0.521272 16.75 0.0812721 15.67 0.711272 15.04L2.00127 13.75V8.75C2.00127 5.67 3.63127 3.11 6.50127 2.43V1.75C6.50127 0.92 7.17127 0.25 8.00127 0.25C8.83127 0.25 9.50127 0.92 9.50127 1.75V2.43C12.3613 3.11 14.0013 5.68 14.0013 8.75ZM10.0013 17.75C10.0013 18.85 9.10127 19.75 8.00127 19.75C6.89127 19.75 6.00127 18.85 6.00127 17.75H10.0013Z" fill="#A2A2A2"/>
</svg>
